<svg xmlns="http://www.w3.org/2000/svg" width="64" height="64" viewBox="0 0 64 64" fill="none">
  <defs>
    <linearGradient id="bg" x1="32" y1="4" x2="32" y2="60" gradientUnits="userSpaceOnUse">
      <stop stop-color="#54E34C"/>
      <stop offset="0.48" stop-color="#4BB243"/>
      <stop offset="1" stop-color="#25F000"/>
    </linearGradient>
    <linearGradient id="wave" x1="32" y1="24" x2="32" y2="58" gradientUnits="userSpaceOnUse">
      <stop stop-color="#006C00"/>
      <stop offset="1" stop-color="#24D500"/>
    </linearGradient>
    <linearGradient id="largeBubble" x1="27" y1="15" x2="27" y2="44" gradientUnits="userSpaceOnUse">
      <stop stop-color="#F9FEFF"/>
      <stop offset="0.58" stop-color="#D8ECFF"/>
      <stop offset="1" stop-color="#6AAAFF"/>
    </linearGradient>
    <linearGradient id="smallBubble" x1="42" y1="27" x2="42" y2="52" gradientUnits="userSpaceOnUse">
      <stop stop-color="#FCFFF9"/>
      <stop offset="0.62" stop-color="#D9FFFF"/>
      <stop offset="1" stop-color="#B9F8F7"/>
    </linearGradient>
    <filter id="softShadow" x="7" y="10" width="53" height="47" filterUnits="userSpaceOnUse" color-interpolation-filters="sRGB">
      <feDropShadow dx="0" dy="1.2" stdDeviation="1" flood-color="#045C00" flood-opacity="0.18"/>
    </filter>
  </defs>
  <rect width="64" height="64" rx="15" fill="url(#bg)"/>
  <path d="M0 29.2C7.9 34.1 17.8 37.7 29.6 39.1C41.7 40.5 52.9 37.4 64 28.3V64H0V29.2Z" fill="url(#wave)" opacity="0.92"/>
  <path d="M0 0H64V28.3C52.7 35.5 42.3 37.8 30.6 36.2C18.3 34.5 8.2 29.9 0 23.8V0Z" fill="#FFFFFF" opacity="0.1"/>
  <g filter="url(#softShadow)">
    <path d="M9.4 27.9C9.4 18.8 18 11.5 28.7 11.5C39.3 11.5 48 18.8 48 27.9C48 37 39.3 44.4 28.7 44.4C27.3 44.4 25.9 44.3 24.6 44L16.1 48.6L18.9 40.3C13.2 37.3 9.4 32.7 9.4 27.9Z" fill="url(#largeBubble)"/>
    <path d="M27 39.5C27 31.9 34 25.7 42.6 25.7C51.2 25.7 58.2 31.9 58.2 39.5C58.2 44 55.8 48 52 50.5L54 57.2L46.7 53C45.4 53.2 44 53.3 42.6 53.3C34 53.3 27 47.1 27 39.5Z" fill="url(#smallBubble)"/>
  </g>
  <circle cx="22.9" cy="25.2" r="2.7" fill="#5C656B"/>
  <circle cx="34.2" cy="25.2" r="2.7" fill="#5C656B"/>
  <circle cx="38.8" cy="37.3" r="2.2" fill="#3F474C"/>
  <circle cx="47.7" cy="37.3" r="2.2" fill="#3F474C"/>
</svg>
