<svg xmlns="http://www.w3.org/2000/svg" width="64" height="64" viewBox="0 0 64 64" fill="none">
  <defs>
    <linearGradient id="bg" x1="8" y1="5" x2="56" y2="58" gradientUnits="userSpaceOnUse">
      <stop stop-color="#FDBA74"/>
      <stop offset="0.5" stop-color="#EA580C"/>
      <stop offset="1" stop-color="#7C2D12"/>
    </linearGradient>
    <linearGradient id="slide" x1="14" y1="12" x2="50" y2="52" gradientUnits="userSpaceOnUse">
      <stop stop-color="#FFFFFF"/>
      <stop offset="1" stop-color="#FFEDD5"/>
    </linearGradient>
    <filter id="shadow" x="7" y="8" width="51" height="52" filterUnits="userSpaceOnUse" color-interpolation-filters="sRGB">
      <feDropShadow dx="0" dy="2" stdDeviation="2" flood-color="#431407" flood-opacity="0.24"/>
    </filter>
  </defs>
  <rect width="64" height="64" rx="16" fill="url(#bg)"/>
  <path d="M0 40C12 35.6 21.8 35 31 38.1C42.3 41.9 52 39.5 64 32V64H0V40Z" fill="#FED7AA" opacity="0.18"/>
  <g filter="url(#shadow)">
    <rect x="11" y="13" width="42" height="35" rx="8" fill="url(#slide)"/>
    <path d="M18 22H34M18 29H29" stroke="#EA580C" stroke-width="3" stroke-linecap="round"/>
    <rect x="35" y="24" width="11" height="13" rx="3" fill="#FDBA74"/>
    <path d="M11 42H53" stroke="#EA580C" stroke-opacity="0.18" stroke-width="2"/>
    <path d="M32 48V54M24 55H40" stroke="#FFEDD5" stroke-width="3" stroke-linecap="round"/>
  </g>
  <rect x="8" y="28" width="18" height="20" rx="5" fill="#C2410C"/>
  <path d="M14 42V34H18.5C20.5 34 22 35.4 22 37.3C22 39.2 20.5 40.5 18.5 40.5H14" stroke="#FFFFFF" stroke-width="2.4" stroke-linecap="round" stroke-linejoin="round"/>
</svg>
