<svg xmlns="http://www.w3.org/2000/svg" width="64" height="64" viewBox="0 0 64 64" fill="none">
  <defs>
    <linearGradient id="bg" x1="9" y1="5" x2="56" y2="58" gradientUnits="userSpaceOnUse">
      <stop stop-color="#818CF8"/>
      <stop offset="0.5" stop-color="#4F46E5"/>
      <stop offset="1" stop-color="#312E81"/>
    </linearGradient>
    <filter id="shadow" x="5" y="13" width="54" height="42" filterUnits="userSpaceOnUse" color-interpolation-filters="sRGB">
      <feDropShadow dx="0" dy="2" stdDeviation="2" flood-color="#1E1B4B" flood-opacity="0.3"/>
    </filter>
  </defs>
  <rect width="64" height="64" rx="16" fill="url(#bg)"/>
  <g filter="url(#shadow)">
    <path d="M10 23.2C10 20.3 12.3 18 15.2 18H48.8C51.7 18 54 20.3 54 23.2V45.8C54 48.7 51.7 51 48.8 51H15.2C12.3 51 10 48.7 10 45.8V23.2Z" fill="#EEF2FF"/>
    <path d="M13.5 22.5L30.5 36C31.4 36.7 32.6 36.7 33.5 36L50.5 22.5" stroke="#4F46E5" stroke-width="4" stroke-linecap="round" stroke-linejoin="round"/>
    <path d="M13.5 47.5L25.8 35.8M50.5 47.5L38.2 35.8" stroke="#A5B4FC" stroke-width="3" stroke-linecap="round"/>
  </g>
  <circle cx="49" cy="18" r="9" fill="#22C55E" stroke="#FFFFFF" stroke-width="3"/>
  <path d="M45.1 18.2L48 21L53.2 15.2" stroke="#FFFFFF" stroke-width="2.7" stroke-linecap="round" stroke-linejoin="round"/>
</svg>
